<mxfile host="app.diagrams.net" agent="Mozilla/5.0 (X11; Ubuntu; Linux x86_64; rv:140.0) Gecko/20100101 Firefox/140.0" version="28.0.1">
  <diagram name="Page-1" id="TXxOkmzMB-AsiZWHqzil">
    <mxGraphModel dx="2218" dy="408" grid="1" gridSize="10" guides="1" tooltips="1" connect="1" arrows="1" fold="1" page="1" pageScale="1" pageWidth="1400" pageHeight="850" math="0" shadow="0">
      <root>
        <mxCell id="0" />
        <mxCell id="1" parent="0" />
        <mxCell id="I9-Bo0b2mwKEJArJB-ll-1" value="QUOTATION CREATION" style="shape=table;childLayout=tableLayout;startSize=40;collapsible=0;recursiveResize=0;expand=0;fontSize=9;fontStyle=1" vertex="1" parent="1">
          <mxGeometry x="-51" y="29" width="2150" height="491.99999999999983" as="geometry" />
        </mxCell>
        <mxCell id="I9-Bo0b2mwKEJArJB-ll-2" value="Sales User" style="shape=tableRow;horizontal=0;swimlaneHead=0;swimlaneBody=0;top=0;left=0;strokeColor=inherit;bottom=0;right=0;dropTarget=0;fontStyle=1;fillColor=none;points=[[0,0.5],[1,0.5]];portConstraint=eastwest;startSize=40;collapsible=0;recursiveResize=0;expand=0;fontSize=9;" vertex="1" parent="I9-Bo0b2mwKEJArJB-ll-1">
          <mxGeometry y="40" width="2150" height="250" as="geometry" />
        </mxCell>
        <mxCell id="I9-Bo0b2mwKEJArJB-ll-3" value="LENS" style="swimlane;swimlaneHead=0;swimlaneBody=0;fontStyle=1;strokeColor=inherit;connectable=0;fillColor=none;startSize=40;collapsible=0;recursiveResize=0;expand=0;fontSize=9;" vertex="1" parent="I9-Bo0b2mwKEJArJB-ll-2">
          <mxGeometry x="40" width="160" height="250" as="geometry">
            <mxRectangle width="160" height="250" as="alternateBounds" />
          </mxGeometry>
        </mxCell>
        <mxCell id="I9-Bo0b2mwKEJArJB-ll-82" style="edgeStyle=orthogonalEdgeStyle;rounded=0;orthogonalLoop=1;jettySize=auto;html=1;exitX=1;exitY=0.5;exitDx=0;exitDy=0;" edge="1" parent="I9-Bo0b2mwKEJArJB-ll-3" source="I9-Bo0b2mwKEJArJB-ll-34">
          <mxGeometry relative="1" as="geometry">
            <mxPoint x="70" y="79.5" as="targetPoint" />
          </mxGeometry>
        </mxCell>
        <mxCell id="I9-Bo0b2mwKEJArJB-ll-34" value="&lt;font&gt;Start&lt;/font&gt;" style="ellipse;whiteSpace=wrap;html=1;aspect=fixed;fontSize=9;" vertex="1" parent="I9-Bo0b2mwKEJArJB-ll-3">
          <mxGeometry x="10" y="61.75" width="35.5" height="35.5" as="geometry" />
        </mxCell>
        <mxCell id="I9-Bo0b2mwKEJArJB-ll-36" value="Create Quotation" style="rounded=0;whiteSpace=wrap;html=1;align=center;fontSize=9;" vertex="1" parent="I9-Bo0b2mwKEJArJB-ll-3">
          <mxGeometry x="70" y="61.75" width="76" height="39" as="geometry" />
        </mxCell>
        <mxCell id="I9-Bo0b2mwKEJArJB-ll-4" value="Customer Lookup" style="swimlane;swimlaneHead=0;swimlaneBody=0;fontStyle=1;strokeColor=inherit;connectable=0;fillColor=none;startSize=40;collapsible=0;recursiveResize=0;expand=0;fontSize=9;" vertex="1" parent="I9-Bo0b2mwKEJArJB-ll-2">
          <mxGeometry x="200" width="320" height="250" as="geometry">
            <mxRectangle width="320" height="250" as="alternateBounds" />
          </mxGeometry>
        </mxCell>
        <mxCell id="I9-Bo0b2mwKEJArJB-ll-5" value="Create Customer" style="rounded=0;whiteSpace=wrap;html=1;align=center;fontSize=9;" vertex="1" parent="I9-Bo0b2mwKEJArJB-ll-4">
          <mxGeometry x="10" y="136" width="76" height="39" as="geometry" />
        </mxCell>
        <mxCell id="I9-Bo0b2mwKEJArJB-ll-6" style="edgeStyle=orthogonalEdgeStyle;rounded=0;orthogonalLoop=1;jettySize=auto;html=1;exitX=0.5;exitY=0;exitDx=0;exitDy=0;entryX=0.5;entryY=1;entryDx=0;entryDy=0;fontSize=9;" edge="1" parent="I9-Bo0b2mwKEJArJB-ll-4" source="I9-Bo0b2mwKEJArJB-ll-7" target="I9-Bo0b2mwKEJArJB-ll-8">
          <mxGeometry relative="1" as="geometry" />
        </mxCell>
        <mxCell id="I9-Bo0b2mwKEJArJB-ll-7" value="Select Request Date &amp;amp; Enter Project Name" style="rounded=0;whiteSpace=wrap;html=1;align=center;fontSize=9;" vertex="1" parent="I9-Bo0b2mwKEJArJB-ll-4">
          <mxGeometry x="886" y="160" width="76" height="39" as="geometry" />
        </mxCell>
        <mxCell id="I9-Bo0b2mwKEJArJB-ll-8" value="Apply Discount" style="rounded=0;whiteSpace=wrap;html=1;align=center;fontSize=9;" vertex="1" parent="I9-Bo0b2mwKEJArJB-ll-4">
          <mxGeometry x="886" y="110" width="76" height="39" as="geometry" />
        </mxCell>
        <mxCell id="I9-Bo0b2mwKEJArJB-ll-9" value="Select Item" style="rounded=0;whiteSpace=wrap;html=1;align=center;fontSize=9;" vertex="1" parent="I9-Bo0b2mwKEJArJB-ll-4">
          <mxGeometry x="691" y="129" width="76" height="39" as="geometry" />
        </mxCell>
        <mxCell id="I9-Bo0b2mwKEJArJB-ll-91" value="Select Customer&amp;nbsp;" style="rounded=0;whiteSpace=wrap;html=1;align=center;fontSize=9;" vertex="1" parent="I9-Bo0b2mwKEJArJB-ll-4">
          <mxGeometry x="110" y="60" width="76" height="39" as="geometry" />
        </mxCell>
        <mxCell id="I9-Bo0b2mwKEJArJB-ll-111" style="edgeStyle=orthogonalEdgeStyle;rounded=0;orthogonalLoop=1;jettySize=auto;html=1;exitX=1;exitY=0.5;exitDx=0;exitDy=0;" edge="1" parent="I9-Bo0b2mwKEJArJB-ll-4" source="I9-Bo0b2mwKEJArJB-ll-106">
          <mxGeometry relative="1" as="geometry">
            <mxPoint x="110" y="81.16666666666674" as="targetPoint" />
          </mxGeometry>
        </mxCell>
        <mxCell id="I9-Bo0b2mwKEJArJB-ll-112" style="edgeStyle=orthogonalEdgeStyle;rounded=0;orthogonalLoop=1;jettySize=auto;html=1;exitX=0.5;exitY=1;exitDx=0;exitDy=0;entryX=0.5;entryY=0;entryDx=0;entryDy=0;" edge="1" parent="I9-Bo0b2mwKEJArJB-ll-4" source="I9-Bo0b2mwKEJArJB-ll-106" target="I9-Bo0b2mwKEJArJB-ll-5">
          <mxGeometry relative="1" as="geometry" />
        </mxCell>
        <mxCell id="I9-Bo0b2mwKEJArJB-ll-106" value="&lt;font style=&quot;font-size: 9px;&quot;&gt;Existing Customer?&lt;/font&gt;" style="rhombus;whiteSpace=wrap;html=1;" vertex="1" parent="I9-Bo0b2mwKEJArJB-ll-4">
          <mxGeometry x="13" y="47.75" width="70" height="67.5" as="geometry" />
        </mxCell>
        <mxCell id="I9-Bo0b2mwKEJArJB-ll-113" value="&lt;font style=&quot;font-size: 9px;&quot;&gt;No&lt;/font&gt;" style="text;html=1;align=center;verticalAlign=middle;whiteSpace=wrap;rounded=0;" vertex="1" parent="I9-Bo0b2mwKEJArJB-ll-4">
          <mxGeometry x="20" y="115.25" width="30" height="12.25" as="geometry" />
        </mxCell>
        <mxCell id="I9-Bo0b2mwKEJArJB-ll-114" value="&lt;font style=&quot;font-size: 9px;&quot;&gt;Yes&lt;/font&gt;" style="text;html=1;align=center;verticalAlign=middle;whiteSpace=wrap;rounded=0;" vertex="1" parent="I9-Bo0b2mwKEJArJB-ll-4">
          <mxGeometry x="79" y="63" width="30" height="12.25" as="geometry" />
        </mxCell>
        <mxCell id="I9-Bo0b2mwKEJArJB-ll-123" value="Factory Lookup" style="swimlane;swimlaneHead=0;swimlaneBody=0;fontStyle=1;strokeColor=inherit;connectable=0;fillColor=none;startSize=40;collapsible=0;recursiveResize=0;expand=0;fontSize=9;" vertex="1" parent="I9-Bo0b2mwKEJArJB-ll-2">
          <mxGeometry x="520" width="170" height="250" as="geometry">
            <mxRectangle width="170" height="250" as="alternateBounds" />
          </mxGeometry>
        </mxCell>
        <mxCell id="I9-Bo0b2mwKEJArJB-ll-127" value="Select Factory&amp;nbsp;" style="rounded=0;whiteSpace=wrap;html=1;align=center;fontSize=9;" vertex="1" parent="I9-Bo0b2mwKEJArJB-ll-123">
          <mxGeometry x="32" y="58.25" width="76" height="39" as="geometry" />
        </mxCell>
        <mxCell id="I9-Bo0b2mwKEJArJB-ll-10" value="Item Lookup" style="swimlane;swimlaneHead=0;swimlaneBody=0;fontStyle=1;strokeColor=inherit;connectable=0;fillColor=none;startSize=40;collapsible=0;recursiveResize=0;expand=0;fontSize=9;" vertex="1" parent="I9-Bo0b2mwKEJArJB-ll-2">
          <mxGeometry x="690" width="391" height="250" as="geometry">
            <mxRectangle width="391" height="250" as="alternateBounds" />
          </mxGeometry>
        </mxCell>
        <mxCell id="I9-Bo0b2mwKEJArJB-ll-138" value="Search item using filter in search variant" style="rounded=0;whiteSpace=wrap;html=1;align=center;fontSize=9;" vertex="1" parent="I9-Bo0b2mwKEJArJB-ll-10">
          <mxGeometry x="106" y="51" width="76" height="40" as="geometry" />
        </mxCell>
        <mxCell id="I9-Bo0b2mwKEJArJB-ll-153" style="edgeStyle=orthogonalEdgeStyle;rounded=0;orthogonalLoop=1;jettySize=auto;html=1;exitX=1;exitY=0.5;exitDx=0;exitDy=0;entryX=0;entryY=0.5;entryDx=0;entryDy=0;" edge="1" parent="I9-Bo0b2mwKEJArJB-ll-10" source="I9-Bo0b2mwKEJArJB-ll-139" target="I9-Bo0b2mwKEJArJB-ll-152">
          <mxGeometry relative="1" as="geometry" />
        </mxCell>
        <mxCell id="I9-Bo0b2mwKEJArJB-ll-139" value="Create Design&amp;nbsp;" style="rounded=0;whiteSpace=wrap;html=1;align=center;fontSize=9;" vertex="1" parent="I9-Bo0b2mwKEJArJB-ll-10">
          <mxGeometry x="19" y="204" width="76" height="39" as="geometry" />
        </mxCell>
        <mxCell id="I9-Bo0b2mwKEJArJB-ll-160" style="edgeStyle=orthogonalEdgeStyle;rounded=0;orthogonalLoop=1;jettySize=auto;html=1;exitX=0.5;exitY=1;exitDx=0;exitDy=0;" edge="1" parent="I9-Bo0b2mwKEJArJB-ll-10" source="I9-Bo0b2mwKEJArJB-ll-135" target="I9-Bo0b2mwKEJArJB-ll-139">
          <mxGeometry relative="1" as="geometry" />
        </mxCell>
        <mxCell id="I9-Bo0b2mwKEJArJB-ll-162" style="edgeStyle=orthogonalEdgeStyle;rounded=0;orthogonalLoop=1;jettySize=auto;html=1;exitX=1;exitY=0.5;exitDx=0;exitDy=0;entryX=0;entryY=0.5;entryDx=0;entryDy=0;" edge="1" parent="I9-Bo0b2mwKEJArJB-ll-10" source="I9-Bo0b2mwKEJArJB-ll-135" target="I9-Bo0b2mwKEJArJB-ll-161">
          <mxGeometry relative="1" as="geometry" />
        </mxCell>
        <mxCell id="I9-Bo0b2mwKEJArJB-ll-135" value="&lt;font style=&quot;font-size: 9px;&quot;&gt;Existing Item?&lt;/font&gt;" style="rhombus;whiteSpace=wrap;html=1;" vertex="1" parent="I9-Bo0b2mwKEJArJB-ll-10">
          <mxGeometry x="22" y="117" width="68" height="63" as="geometry" />
        </mxCell>
        <mxCell id="I9-Bo0b2mwKEJArJB-ll-137" value="&lt;font style=&quot;font-size: 9px;&quot;&gt;Yes&lt;/font&gt;" style="text;html=1;align=center;verticalAlign=middle;whiteSpace=wrap;rounded=0;" vertex="1" parent="I9-Bo0b2mwKEJArJB-ll-10">
          <mxGeometry x="81" y="121" width="30" height="11.75" as="geometry" />
        </mxCell>
        <mxCell id="I9-Bo0b2mwKEJArJB-ll-136" value="&lt;font style=&quot;font-size: 9px;&quot;&gt;No&lt;/font&gt;" style="text;html=1;align=center;verticalAlign=middle;whiteSpace=wrap;rounded=0;" vertex="1" parent="I9-Bo0b2mwKEJArJB-ll-10">
          <mxGeometry x="22" y="180.5" width="30" height="12.25" as="geometry" />
        </mxCell>
        <mxCell id="I9-Bo0b2mwKEJArJB-ll-152" value="Create Item" style="rounded=0;whiteSpace=wrap;html=1;align=center;fontSize=9;" vertex="1" parent="I9-Bo0b2mwKEJArJB-ll-10">
          <mxGeometry x="121" y="204" width="76" height="39" as="geometry" />
        </mxCell>
        <mxCell id="I9-Bo0b2mwKEJArJB-ll-154" value="Enter Quantity" style="rounded=0;whiteSpace=wrap;html=1;align=center;fontSize=9;" vertex="1" parent="I9-Bo0b2mwKEJArJB-ll-10">
          <mxGeometry x="293" y="129" width="76" height="39" as="geometry" />
        </mxCell>
        <mxCell id="I9-Bo0b2mwKEJArJB-ll-164" style="edgeStyle=orthogonalEdgeStyle;rounded=0;orthogonalLoop=1;jettySize=auto;html=1;exitX=0.5;exitY=0;exitDx=0;exitDy=0;entryX=0.5;entryY=1;entryDx=0;entryDy=0;" edge="1" parent="I9-Bo0b2mwKEJArJB-ll-10" source="I9-Bo0b2mwKEJArJB-ll-161" target="I9-Bo0b2mwKEJArJB-ll-138">
          <mxGeometry relative="1" as="geometry" />
        </mxCell>
        <mxCell id="I9-Bo0b2mwKEJArJB-ll-166" style="edgeStyle=orthogonalEdgeStyle;rounded=0;orthogonalLoop=1;jettySize=auto;html=1;exitX=1;exitY=0.5;exitDx=0;exitDy=0;" edge="1" parent="I9-Bo0b2mwKEJArJB-ll-10" source="I9-Bo0b2mwKEJArJB-ll-161">
          <mxGeometry relative="1" as="geometry">
            <mxPoint x="201" y="148.83333333333337" as="targetPoint" />
          </mxGeometry>
        </mxCell>
        <mxCell id="I9-Bo0b2mwKEJArJB-ll-161" value="&lt;div&gt;&lt;font style=&quot;font-size: 9px;&quot;&gt;Couldn&#39;t&amp;nbsp;&lt;/font&gt;&lt;/div&gt;&lt;div&gt;&lt;font style=&quot;font-size: 9px;&quot;&gt;Find?&lt;/font&gt;&lt;/div&gt;" style="rhombus;whiteSpace=wrap;html=1;" vertex="1" parent="I9-Bo0b2mwKEJArJB-ll-10">
          <mxGeometry x="109" y="117" width="68" height="63" as="geometry" />
        </mxCell>
        <mxCell id="I9-Bo0b2mwKEJArJB-ll-165" value="&lt;font style=&quot;font-size: 9px;&quot;&gt;Yes&lt;/font&gt;" style="text;html=1;align=center;verticalAlign=middle;whiteSpace=wrap;rounded=0;" vertex="1" parent="I9-Bo0b2mwKEJArJB-ll-10">
          <mxGeometry x="141" y="101" width="30" height="11.75" as="geometry" />
        </mxCell>
        <mxCell id="I9-Bo0b2mwKEJArJB-ll-167" value="&lt;font style=&quot;font-size: 9px;&quot;&gt;No&lt;/font&gt;" style="text;html=1;align=center;verticalAlign=middle;whiteSpace=wrap;rounded=0;" vertex="1" parent="I9-Bo0b2mwKEJArJB-ll-10">
          <mxGeometry x="168" y="150" width="30" height="12.25" as="geometry" />
        </mxCell>
        <mxCell id="I9-Bo0b2mwKEJArJB-ll-11" value="Discount Lookup" style="swimlane;swimlaneHead=0;swimlaneBody=0;fontStyle=1;strokeColor=inherit;connectable=0;fillColor=none;startSize=40;collapsible=0;recursiveResize=0;expand=0;fontSize=9;" vertex="1" parent="I9-Bo0b2mwKEJArJB-ll-2">
          <mxGeometry x="1081" width="859" height="250" as="geometry">
            <mxRectangle width="859" height="250" as="alternateBounds" />
          </mxGeometry>
        </mxCell>
        <mxCell id="I9-Bo0b2mwKEJArJB-ll-12" value="Quotation More Info" style="swimlane;swimlaneHead=0;swimlaneBody=0;fontStyle=1;strokeColor=inherit;connectable=0;fillColor=none;startSize=40;collapsible=0;recursiveResize=0;expand=0;fontSize=9;" vertex="1" parent="I9-Bo0b2mwKEJArJB-ll-2">
          <mxGeometry x="1940" width="210" height="250" as="geometry">
            <mxRectangle width="210" height="250" as="alternateBounds" />
          </mxGeometry>
        </mxCell>
        <mxCell id="I9-Bo0b2mwKEJArJB-ll-107" style="edgeStyle=orthogonalEdgeStyle;rounded=0;orthogonalLoop=1;jettySize=auto;html=1;exitX=1;exitY=0.5;exitDx=0;exitDy=0;entryX=0;entryY=0.5;entryDx=0;entryDy=0;" edge="1" parent="I9-Bo0b2mwKEJArJB-ll-2" source="I9-Bo0b2mwKEJArJB-ll-36" target="I9-Bo0b2mwKEJArJB-ll-106">
          <mxGeometry relative="1" as="geometry" />
        </mxCell>
        <mxCell id="I9-Bo0b2mwKEJArJB-ll-168" style="edgeStyle=orthogonalEdgeStyle;rounded=0;orthogonalLoop=1;jettySize=auto;html=1;exitX=1;exitY=0.5;exitDx=0;exitDy=0;entryX=0.5;entryY=0;entryDx=0;entryDy=0;" edge="1" parent="I9-Bo0b2mwKEJArJB-ll-2" source="I9-Bo0b2mwKEJArJB-ll-138" target="I9-Bo0b2mwKEJArJB-ll-9">
          <mxGeometry relative="1" as="geometry" />
        </mxCell>
        <mxCell id="I9-Bo0b2mwKEJArJB-ll-169" style="edgeStyle=orthogonalEdgeStyle;rounded=0;orthogonalLoop=1;jettySize=auto;html=1;exitX=1;exitY=0.5;exitDx=0;exitDy=0;entryX=0.5;entryY=1;entryDx=0;entryDy=0;" edge="1" parent="I9-Bo0b2mwKEJArJB-ll-2" source="I9-Bo0b2mwKEJArJB-ll-152" target="I9-Bo0b2mwKEJArJB-ll-9">
          <mxGeometry relative="1" as="geometry" />
        </mxCell>
        <mxCell id="I9-Bo0b2mwKEJArJB-ll-170" style="edgeStyle=orthogonalEdgeStyle;rounded=0;orthogonalLoop=1;jettySize=auto;html=1;exitX=1;exitY=0.5;exitDx=0;exitDy=0;entryX=0;entryY=0.5;entryDx=0;entryDy=0;" edge="1" parent="I9-Bo0b2mwKEJArJB-ll-2" source="I9-Bo0b2mwKEJArJB-ll-9" target="I9-Bo0b2mwKEJArJB-ll-154">
          <mxGeometry relative="1" as="geometry" />
        </mxCell>
        <mxCell id="I9-Bo0b2mwKEJArJB-ll-13" value="System" style="shape=tableRow;horizontal=0;swimlaneHead=0;swimlaneBody=0;top=0;left=0;strokeColor=inherit;bottom=0;right=0;dropTarget=0;fontStyle=1;fillColor=none;points=[[0,0.5],[1,0.5]];portConstraint=eastwest;startSize=40;collapsible=0;recursiveResize=0;expand=0;fontSize=9;" vertex="1" parent="I9-Bo0b2mwKEJArJB-ll-1">
          <mxGeometry y="290" width="2150" height="202" as="geometry" />
        </mxCell>
        <mxCell id="I9-Bo0b2mwKEJArJB-ll-14" value="" style="swimlane;swimlaneHead=0;swimlaneBody=0;fontStyle=1;connectable=0;strokeColor=inherit;fillColor=none;startSize=0;collapsible=0;recursiveResize=0;expand=0;fontSize=9;" vertex="1" parent="I9-Bo0b2mwKEJArJB-ll-13">
          <mxGeometry x="40" width="160" height="202" as="geometry">
            <mxRectangle width="160" height="202" as="alternateBounds" />
          </mxGeometry>
        </mxCell>
        <mxCell id="I9-Bo0b2mwKEJArJB-ll-15" value="" style="swimlane;swimlaneHead=0;swimlaneBody=0;fontStyle=1;connectable=0;strokeColor=inherit;fillColor=none;startSize=0;collapsible=0;recursiveResize=0;expand=0;fontSize=9;" vertex="1" parent="I9-Bo0b2mwKEJArJB-ll-13">
          <mxGeometry x="200" width="320" height="202" as="geometry">
            <mxRectangle width="320" height="202" as="alternateBounds" />
          </mxGeometry>
        </mxCell>
        <mxCell id="I9-Bo0b2mwKEJArJB-ll-171" style="edgeStyle=orthogonalEdgeStyle;rounded=0;orthogonalLoop=1;jettySize=auto;html=1;exitX=1;exitY=0.5;exitDx=0;exitDy=0;" edge="1" parent="I9-Bo0b2mwKEJArJB-ll-15" source="I9-Bo0b2mwKEJArJB-ll-16">
          <mxGeometry relative="1" as="geometry">
            <mxPoint x="921" y="-49" as="targetPoint" />
          </mxGeometry>
        </mxCell>
        <mxCell id="I9-Bo0b2mwKEJArJB-ll-16" value="&amp;nbsp; &amp;nbsp; &amp;nbsp; &amp;nbsp; Calculate Total Amount" style="rounded=0;whiteSpace=wrap;html=1;align=center;fontSize=9;" vertex="1" parent="I9-Bo0b2mwKEJArJB-ll-15">
          <mxGeometry x="777" y="58" width="86" height="39" as="geometry" />
        </mxCell>
        <mxCell id="I9-Bo0b2mwKEJArJB-ll-17" value="" style="sketch=0;pointerEvents=1;shadow=0;dashed=0;html=1;strokeColor=none;fillColor=#505050;labelPosition=center;verticalLabelPosition=bottom;verticalAlign=top;outlineConnect=0;align=center;shape=mxgraph.office.concepts.bandwidth_calculator;fontSize=9;" vertex="1" parent="I9-Bo0b2mwKEJArJB-ll-15">
          <mxGeometry x="782" y="59" width="16" height="18" as="geometry" />
        </mxCell>
        <mxCell id="I9-Bo0b2mwKEJArJB-ll-101" style="edgeStyle=orthogonalEdgeStyle;rounded=0;orthogonalLoop=1;jettySize=auto;html=1;exitX=0.5;exitY=1;exitDx=0;exitDy=0;entryX=0.5;entryY=0;entryDx=0;entryDy=0;" edge="1" parent="I9-Bo0b2mwKEJArJB-ll-15" source="I9-Bo0b2mwKEJArJB-ll-41" target="I9-Bo0b2mwKEJArJB-ll-43">
          <mxGeometry relative="1" as="geometry" />
        </mxCell>
        <mxCell id="I9-Bo0b2mwKEJArJB-ll-41" value="Fetch customer name" style="rounded=0;whiteSpace=wrap;html=1;align=left;fontSize=9;" vertex="1" parent="I9-Bo0b2mwKEJArJB-ll-15">
          <mxGeometry x="105" y="20" width="86" height="39" as="geometry" />
        </mxCell>
        <mxCell id="I9-Bo0b2mwKEJArJB-ll-102" style="edgeStyle=orthogonalEdgeStyle;rounded=0;orthogonalLoop=1;jettySize=auto;html=1;exitX=0.5;exitY=1;exitDx=0;exitDy=0;entryX=0.5;entryY=0;entryDx=0;entryDy=0;" edge="1" parent="I9-Bo0b2mwKEJArJB-ll-15" source="I9-Bo0b2mwKEJArJB-ll-43" target="I9-Bo0b2mwKEJArJB-ll-19">
          <mxGeometry relative="1" as="geometry" />
        </mxCell>
        <mxCell id="I9-Bo0b2mwKEJArJB-ll-43" value="&lt;div align=&quot;left&quot;&gt;Fetches Currency &amp;amp; Price List in Details based on customer&lt;/div&gt;" style="rounded=0;whiteSpace=wrap;html=1;align=left;fontSize=9;" vertex="1" parent="I9-Bo0b2mwKEJArJB-ll-15">
          <mxGeometry x="105" y="77" width="86" height="39" as="geometry" />
        </mxCell>
        <mxCell id="I9-Bo0b2mwKEJArJB-ll-103" style="edgeStyle=orthogonalEdgeStyle;rounded=0;orthogonalLoop=1;jettySize=auto;html=1;exitX=1;exitY=0.5;exitDx=0;exitDy=0;entryX=0;entryY=0.5;entryDx=0;entryDy=0;" edge="1" parent="I9-Bo0b2mwKEJArJB-ll-15" source="I9-Bo0b2mwKEJArJB-ll-19" target="I9-Bo0b2mwKEJArJB-ll-90">
          <mxGeometry relative="1" as="geometry" />
        </mxCell>
        <mxCell id="I9-Bo0b2mwKEJArJB-ll-19" value="&lt;div align=&quot;left&quot;&gt;Fetches Sales Agent,Billing,shipping &amp;amp; Company address&lt;/div&gt;" style="rounded=0;whiteSpace=wrap;html=1;align=left;fontSize=9;" vertex="1" parent="I9-Bo0b2mwKEJArJB-ll-15">
          <mxGeometry x="105" y="132" width="86" height="39" as="geometry" />
        </mxCell>
        <mxCell id="I9-Bo0b2mwKEJArJB-ll-105" style="edgeStyle=orthogonalEdgeStyle;rounded=0;orthogonalLoop=1;jettySize=auto;html=1;exitX=0.5;exitY=0;exitDx=0;exitDy=0;entryX=0.5;entryY=1;entryDx=0;entryDy=0;" edge="1" parent="I9-Bo0b2mwKEJArJB-ll-15" source="I9-Bo0b2mwKEJArJB-ll-23" target="I9-Bo0b2mwKEJArJB-ll-89">
          <mxGeometry relative="1" as="geometry" />
        </mxCell>
        <mxCell id="I9-Bo0b2mwKEJArJB-ll-23" value="&lt;div&gt;Fetches Incoterms,&lt;/div&gt;&lt;div&gt;Payment term template&amp;nbsp; in terms&amp;nbsp;&lt;/div&gt;" style="rounded=0;whiteSpace=wrap;html=1;align=center;fontSize=9;" vertex="1" parent="I9-Bo0b2mwKEJArJB-ll-15">
          <mxGeometry x="221" y="77" width="86" height="39" as="geometry" />
        </mxCell>
        <mxCell id="I9-Bo0b2mwKEJArJB-ll-89" value="&lt;div align=&quot;left&quot;&gt;Fetches Customer group &amp;amp; Territory in More Info&lt;/div&gt;" style="rounded=0;whiteSpace=wrap;html=1;align=left;fontSize=9;" vertex="1" parent="I9-Bo0b2mwKEJArJB-ll-15">
          <mxGeometry x="221" y="22" width="86" height="39" as="geometry" />
        </mxCell>
        <mxCell id="I9-Bo0b2mwKEJArJB-ll-104" style="edgeStyle=orthogonalEdgeStyle;rounded=0;orthogonalLoop=1;jettySize=auto;html=1;exitX=0.5;exitY=0;exitDx=0;exitDy=0;entryX=0.5;entryY=1;entryDx=0;entryDy=0;" edge="1" parent="I9-Bo0b2mwKEJArJB-ll-15" source="I9-Bo0b2mwKEJArJB-ll-90" target="I9-Bo0b2mwKEJArJB-ll-23">
          <mxGeometry relative="1" as="geometry" />
        </mxCell>
        <mxCell id="I9-Bo0b2mwKEJArJB-ll-90" value="&lt;div align=&quot;left&quot;&gt;&lt;div align=&quot;left&quot;&gt;&amp;nbsp;Fetches Packaging &amp;amp;&lt;/div&gt;&lt;div align=&quot;left&quot;&gt;warranty in Terms&lt;/div&gt;&lt;/div&gt;" style="rounded=0;whiteSpace=wrap;html=1;align=left;fontSize=9;" vertex="1" parent="I9-Bo0b2mwKEJArJB-ll-15">
          <mxGeometry x="221" y="132" width="86" height="39" as="geometry" />
        </mxCell>
        <mxCell id="I9-Bo0b2mwKEJArJB-ll-124" style="swimlane;swimlaneHead=0;swimlaneBody=0;fontStyle=1;connectable=0;strokeColor=inherit;fillColor=none;startSize=0;collapsible=0;recursiveResize=0;expand=0;fontSize=9;" vertex="1" parent="I9-Bo0b2mwKEJArJB-ll-13">
          <mxGeometry x="520" width="170" height="202" as="geometry">
            <mxRectangle width="170" height="202" as="alternateBounds" />
          </mxGeometry>
        </mxCell>
        <mxCell id="I9-Bo0b2mwKEJArJB-ll-132" style="edgeStyle=orthogonalEdgeStyle;rounded=0;orthogonalLoop=1;jettySize=auto;html=1;exitX=0.5;exitY=1;exitDx=0;exitDy=0;entryX=0.5;entryY=0;entryDx=0;entryDy=0;" edge="1" parent="I9-Bo0b2mwKEJArJB-ll-124" source="I9-Bo0b2mwKEJArJB-ll-129" target="I9-Bo0b2mwKEJArJB-ll-131">
          <mxGeometry relative="1" as="geometry" />
        </mxCell>
        <mxCell id="I9-Bo0b2mwKEJArJB-ll-129" value="Fetches Letter head,Print Language in More Info&amp;nbsp;" style="rounded=0;whiteSpace=wrap;html=1;align=center;fontSize=9;" vertex="1" parent="I9-Bo0b2mwKEJArJB-ll-124">
          <mxGeometry x="32" y="20" width="76" height="39" as="geometry" />
        </mxCell>
        <mxCell id="I9-Bo0b2mwKEJArJB-ll-131" value="Prints Terms &amp;amp; Details based on&amp;nbsp; print language in Terms" style="rounded=0;whiteSpace=wrap;html=1;align=center;fontSize=9;" vertex="1" parent="I9-Bo0b2mwKEJArJB-ll-124">
          <mxGeometry x="32" y="78" width="76" height="39" as="geometry" />
        </mxCell>
        <mxCell id="I9-Bo0b2mwKEJArJB-ll-18" value="" style="swimlane;swimlaneHead=0;swimlaneBody=0;fontStyle=1;connectable=0;strokeColor=inherit;fillColor=none;startSize=0;collapsible=0;recursiveResize=0;expand=0;fontSize=9;" vertex="1" parent="I9-Bo0b2mwKEJArJB-ll-13">
          <mxGeometry x="690" width="391" height="202" as="geometry">
            <mxRectangle width="391" height="202" as="alternateBounds" />
          </mxGeometry>
        </mxCell>
        <mxCell id="I9-Bo0b2mwKEJArJB-ll-58" value="Shows final total after discount&amp;nbsp;&amp;nbsp;" style="rounded=0;whiteSpace=wrap;html=1;align=center;fontSize=9;" vertex="1" parent="I9-Bo0b2mwKEJArJB-ll-18">
          <mxGeometry x="409" y="97" width="76" height="39" as="geometry" />
        </mxCell>
        <mxCell id="I9-Bo0b2mwKEJArJB-ll-20" value="" style="swimlane;swimlaneHead=0;swimlaneBody=0;fontStyle=1;connectable=0;strokeColor=inherit;fillColor=none;startSize=0;collapsible=0;recursiveResize=0;expand=0;fontSize=9;" vertex="1" parent="I9-Bo0b2mwKEJArJB-ll-13">
          <mxGeometry x="1081" width="859" height="202" as="geometry">
            <mxRectangle width="859" height="202" as="alternateBounds" />
          </mxGeometry>
        </mxCell>
        <mxCell id="I9-Bo0b2mwKEJArJB-ll-25" value="" style="swimlane;swimlaneHead=0;swimlaneBody=0;fontStyle=1;connectable=0;strokeColor=inherit;fillColor=none;startSize=0;collapsible=0;recursiveResize=0;expand=0;fontSize=9;" vertex="1" parent="I9-Bo0b2mwKEJArJB-ll-13">
          <mxGeometry x="1940" width="210" height="202" as="geometry">
            <mxRectangle width="210" height="202" as="alternateBounds" />
          </mxGeometry>
        </mxCell>
        <mxCell id="I9-Bo0b2mwKEJArJB-ll-26" value="Auto-fill Defaults-Letter head,status,workflow state in More Info" style="rounded=0;whiteSpace=wrap;html=1;align=center;fontSize=9;" vertex="1" parent="I9-Bo0b2mwKEJArJB-ll-25">
          <mxGeometry x="40" y="147" width="76" height="39" as="geometry" />
        </mxCell>
        <mxCell id="I9-Bo0b2mwKEJArJB-ll-128" style="edgeStyle=orthogonalEdgeStyle;rounded=0;orthogonalLoop=1;jettySize=auto;html=1;exitX=0.5;exitY=0;exitDx=0;exitDy=0;entryX=0;entryY=0.5;entryDx=0;entryDy=0;" edge="1" parent="I9-Bo0b2mwKEJArJB-ll-1" source="I9-Bo0b2mwKEJArJB-ll-89" target="I9-Bo0b2mwKEJArJB-ll-127">
          <mxGeometry relative="1" as="geometry" />
        </mxCell>
        <mxCell id="I9-Bo0b2mwKEJArJB-ll-130" style="edgeStyle=orthogonalEdgeStyle;rounded=0;orthogonalLoop=1;jettySize=auto;html=1;exitX=0.5;exitY=1;exitDx=0;exitDy=0;entryX=0.5;entryY=0;entryDx=0;entryDy=0;" edge="1" parent="I9-Bo0b2mwKEJArJB-ll-1" source="I9-Bo0b2mwKEJArJB-ll-127" target="I9-Bo0b2mwKEJArJB-ll-129">
          <mxGeometry relative="1" as="geometry" />
        </mxCell>
        <mxCell id="I9-Bo0b2mwKEJArJB-ll-156" style="edgeStyle=orthogonalEdgeStyle;rounded=0;orthogonalLoop=1;jettySize=auto;html=1;exitX=0.5;exitY=1;exitDx=0;exitDy=0;entryX=0.5;entryY=0;entryDx=0;entryDy=0;" edge="1" parent="I9-Bo0b2mwKEJArJB-ll-1" source="I9-Bo0b2mwKEJArJB-ll-154" target="I9-Bo0b2mwKEJArJB-ll-16">
          <mxGeometry relative="1" as="geometry" />
        </mxCell>
        <mxCell id="I9-Bo0b2mwKEJArJB-ll-44" style="edgeStyle=orthogonalEdgeStyle;rounded=0;orthogonalLoop=1;jettySize=auto;html=1;exitX=1;exitY=0.5;exitDx=0;exitDy=0;entryX=0;entryY=0.5;entryDx=0;entryDy=0;fontSize=9;" edge="1" parent="1" source="I9-Bo0b2mwKEJArJB-ll-46" target="I9-Bo0b2mwKEJArJB-ll-49">
          <mxGeometry relative="1" as="geometry" />
        </mxCell>
        <mxCell id="I9-Bo0b2mwKEJArJB-ll-45" style="edgeStyle=orthogonalEdgeStyle;rounded=0;orthogonalLoop=1;jettySize=auto;html=1;exitX=1;exitY=0.5;exitDx=0;exitDy=0;entryX=0;entryY=0.5;entryDx=0;entryDy=0;fontSize=9;" edge="1" parent="1" source="I9-Bo0b2mwKEJArJB-ll-46" target="I9-Bo0b2mwKEJArJB-ll-48">
          <mxGeometry relative="1" as="geometry" />
        </mxCell>
        <mxCell id="I9-Bo0b2mwKEJArJB-ll-46" value="" style="rhombus;whiteSpace=wrap;html=1;fontSize=9;" vertex="1" parent="1">
          <mxGeometry x="1165" y="195" width="30" height="30" as="geometry" />
        </mxCell>
        <mxCell id="I9-Bo0b2mwKEJArJB-ll-47" style="edgeStyle=orthogonalEdgeStyle;rounded=0;orthogonalLoop=1;jettySize=auto;html=1;exitX=0.5;exitY=1;exitDx=0;exitDy=0;fontSize=9;" edge="1" parent="1" source="I9-Bo0b2mwKEJArJB-ll-46" target="I9-Bo0b2mwKEJArJB-ll-46">
          <mxGeometry relative="1" as="geometry" />
        </mxCell>
        <mxCell id="I9-Bo0b2mwKEJArJB-ll-48" value="Apply &lt;strong&gt;overall discount&lt;/strong&gt; to total quotation" style="rounded=0;whiteSpace=wrap;html=1;align=center;fontSize=9;" vertex="1" parent="1">
          <mxGeometry x="1244" y="220" width="76" height="39" as="geometry" />
        </mxCell>
        <mxCell id="I9-Bo0b2mwKEJArJB-ll-49" value="Add &lt;strong&gt;2% discount&lt;/strong&gt; to each item" style="rounded=0;whiteSpace=wrap;html=1;align=center;fontSize=9;" vertex="1" parent="1">
          <mxGeometry x="1244" y="150" width="76" height="39" as="geometry" />
        </mxCell>
        <mxCell id="I9-Bo0b2mwKEJArJB-ll-50" style="edgeStyle=orthogonalEdgeStyle;rounded=0;orthogonalLoop=1;jettySize=auto;html=1;exitX=0.5;exitY=0;exitDx=0;exitDy=0;fontSize=9;" edge="1" parent="1" source="I9-Bo0b2mwKEJArJB-ll-51" target="I9-Bo0b2mwKEJArJB-ll-53">
          <mxGeometry relative="1" as="geometry" />
        </mxCell>
        <mxCell id="I9-Bo0b2mwKEJArJB-ll-51" value="Save the Quotation" style="rounded=0;whiteSpace=wrap;html=1;align=center;fontSize=9;" vertex="1" parent="1">
          <mxGeometry x="1380" y="220" width="76" height="39" as="geometry" />
        </mxCell>
        <mxCell id="I9-Bo0b2mwKEJArJB-ll-52" style="edgeStyle=orthogonalEdgeStyle;rounded=0;orthogonalLoop=1;jettySize=auto;html=1;exitX=1;exitY=0.5;exitDx=0;exitDy=0;entryX=0;entryY=0.5;entryDx=0;entryDy=0;fontSize=9;" edge="1" parent="1" source="I9-Bo0b2mwKEJArJB-ll-53" target="I9-Bo0b2mwKEJArJB-ll-54">
          <mxGeometry relative="1" as="geometry" />
        </mxCell>
        <mxCell id="I9-Bo0b2mwKEJArJB-ll-53" value="Submit the Quotation" style="rounded=0;whiteSpace=wrap;html=1;align=center;fontSize=9;" vertex="1" parent="1">
          <mxGeometry x="1380" y="150" width="76" height="39" as="geometry" />
        </mxCell>
        <mxCell id="I9-Bo0b2mwKEJArJB-ll-54" value="On Submit" style="rounded=0;whiteSpace=wrap;html=1;align=center;fontSize=9;" vertex="1" parent="1">
          <mxGeometry x="1501" y="150" width="76" height="39" as="geometry" />
        </mxCell>
        <mxCell id="I9-Bo0b2mwKEJArJB-ll-55" style="edgeStyle=orthogonalEdgeStyle;rounded=0;orthogonalLoop=1;jettySize=auto;html=1;exitX=1;exitY=0.5;exitDx=0;exitDy=0;fontSize=9;" edge="1" parent="1" source="I9-Bo0b2mwKEJArJB-ll-56" target="I9-Bo0b2mwKEJArJB-ll-59">
          <mxGeometry relative="1" as="geometry" />
        </mxCell>
        <mxCell id="I9-Bo0b2mwKEJArJB-ll-56" value="Shows discounted total amount per item&amp;nbsp;" style="rounded=0;whiteSpace=wrap;html=1;align=center;fontSize=9;" vertex="1" parent="1">
          <mxGeometry x="1281" y="324.5" width="76" height="39" as="geometry" />
        </mxCell>
        <mxCell id="I9-Bo0b2mwKEJArJB-ll-57" style="edgeStyle=orthogonalEdgeStyle;rounded=0;orthogonalLoop=1;jettySize=auto;html=1;exitX=1;exitY=0.5;exitDx=0;exitDy=0;entryX=0;entryY=0.5;entryDx=0;entryDy=0;fontSize=9;" edge="1" parent="1" target="I9-Bo0b2mwKEJArJB-ll-59">
          <mxGeometry relative="1" as="geometry">
            <mxPoint x="1356.9999999999995" y="400.5" as="sourcePoint" />
          </mxGeometry>
        </mxCell>
        <mxCell id="I9-Bo0b2mwKEJArJB-ll-59" value="" style="shape=orEllipse;perimeter=ellipsePerimeter;whiteSpace=wrap;html=1;backgroundOutline=1;fontSize=9;" vertex="1" parent="1">
          <mxGeometry x="1402" y="350.25" width="32" height="30.5" as="geometry" />
        </mxCell>
        <mxCell id="I9-Bo0b2mwKEJArJB-ll-60" style="edgeStyle=orthogonalEdgeStyle;rounded=0;orthogonalLoop=1;jettySize=auto;html=1;exitX=0.5;exitY=1;exitDx=0;exitDy=0;fontSize=9;" edge="1" parent="1" source="I9-Bo0b2mwKEJArJB-ll-61">
          <mxGeometry relative="1" as="geometry">
            <mxPoint x="1727" y="210" as="targetPoint" />
          </mxGeometry>
        </mxCell>
        <mxCell id="I9-Bo0b2mwKEJArJB-ll-61" value="Attach all &lt;strong&gt;Item Datasheets&lt;/strong&gt;" style="rounded=0;whiteSpace=wrap;html=1;align=center;fontSize=9;" vertex="1" parent="1">
          <mxGeometry x="1451" y="356" width="76" height="39" as="geometry" />
        </mxCell>
        <mxCell id="I9-Bo0b2mwKEJArJB-ll-62" style="edgeStyle=orthogonalEdgeStyle;rounded=0;orthogonalLoop=1;jettySize=auto;html=1;exitX=1;exitY=0.5;exitDx=0;exitDy=0;entryX=0;entryY=0.5;entryDx=0;entryDy=0;fontSize=9;" edge="1" parent="1" source="I9-Bo0b2mwKEJArJB-ll-49" target="I9-Bo0b2mwKEJArJB-ll-56">
          <mxGeometry relative="1" as="geometry" />
        </mxCell>
        <mxCell id="I9-Bo0b2mwKEJArJB-ll-63" style="edgeStyle=orthogonalEdgeStyle;rounded=0;orthogonalLoop=1;jettySize=auto;html=1;exitX=0.5;exitY=1;exitDx=0;exitDy=0;entryX=0;entryY=0.5;entryDx=0;entryDy=0;fontSize=9;" edge="1" parent="1" source="I9-Bo0b2mwKEJArJB-ll-48">
          <mxGeometry relative="1" as="geometry">
            <mxPoint x="1281" y="400.5" as="targetPoint" />
          </mxGeometry>
        </mxCell>
        <mxCell id="I9-Bo0b2mwKEJArJB-ll-64" style="edgeStyle=orthogonalEdgeStyle;rounded=0;orthogonalLoop=1;jettySize=auto;html=1;exitX=0.5;exitY=0;exitDx=0;exitDy=0;entryX=0.5;entryY=1;entryDx=0;entryDy=0;fontSize=9;" edge="1" parent="1" source="I9-Bo0b2mwKEJArJB-ll-59" target="I9-Bo0b2mwKEJArJB-ll-51">
          <mxGeometry relative="1" as="geometry" />
        </mxCell>
        <mxCell id="I9-Bo0b2mwKEJArJB-ll-65" value="" style="shape=cross;whiteSpace=wrap;html=1;size=0.1430091119581675;fillStyle=solid;fillColor=none;fontSize=9;" vertex="1" parent="1">
          <mxGeometry x="1170" y="200" width="20" height="20" as="geometry" />
        </mxCell>
        <mxCell id="I9-Bo0b2mwKEJArJB-ll-66" style="edgeStyle=orthogonalEdgeStyle;rounded=0;orthogonalLoop=1;jettySize=auto;html=1;exitX=0;exitY=0.5;exitDx=0;exitDy=0;entryX=0.5;entryY=0;entryDx=0;entryDy=0;fontSize=9;" edge="1" parent="1" source="I9-Bo0b2mwKEJArJB-ll-68" target="I9-Bo0b2mwKEJArJB-ll-61">
          <mxGeometry relative="1" as="geometry" />
        </mxCell>
        <mxCell id="I9-Bo0b2mwKEJArJB-ll-67" style="edgeStyle=orthogonalEdgeStyle;rounded=0;orthogonalLoop=1;jettySize=auto;html=1;exitX=1;exitY=0.5;exitDx=0;exitDy=0;entryX=0.5;entryY=0;entryDx=0;entryDy=0;fontSize=9;" edge="1" parent="1" source="I9-Bo0b2mwKEJArJB-ll-68" target="I9-Bo0b2mwKEJArJB-ll-73">
          <mxGeometry relative="1" as="geometry" />
        </mxCell>
        <mxCell id="I9-Bo0b2mwKEJArJB-ll-68" value="" style="rhombus;whiteSpace=wrap;html=1;fontSize=9;" vertex="1" parent="1">
          <mxGeometry x="1522" y="211" width="30" height="30" as="geometry" />
        </mxCell>
        <mxCell id="I9-Bo0b2mwKEJArJB-ll-69" style="edgeStyle=orthogonalEdgeStyle;rounded=0;orthogonalLoop=1;jettySize=auto;html=1;exitX=0.5;exitY=1;exitDx=0;exitDy=0;fontSize=9;" edge="1" parent="1" source="I9-Bo0b2mwKEJArJB-ll-68" target="I9-Bo0b2mwKEJArJB-ll-68">
          <mxGeometry relative="1" as="geometry" />
        </mxCell>
        <mxCell id="I9-Bo0b2mwKEJArJB-ll-70" value="" style="shape=cross;whiteSpace=wrap;html=1;size=0.1430091119581675;fillStyle=solid;fillColor=none;fontSize=9;" vertex="1" parent="1">
          <mxGeometry x="1527" y="216" width="20" height="20" as="geometry" />
        </mxCell>
        <mxCell id="I9-Bo0b2mwKEJArJB-ll-71" style="edgeStyle=orthogonalEdgeStyle;rounded=0;orthogonalLoop=1;jettySize=auto;html=1;exitX=0.5;exitY=1;exitDx=0;exitDy=0;entryX=0.5;entryY=0;entryDx=0;entryDy=0;fontSize=9;" edge="1" parent="1" source="I9-Bo0b2mwKEJArJB-ll-54" target="I9-Bo0b2mwKEJArJB-ll-68">
          <mxGeometry relative="1" as="geometry" />
        </mxCell>
        <mxCell id="I9-Bo0b2mwKEJArJB-ll-72" style="edgeStyle=orthogonalEdgeStyle;rounded=0;orthogonalLoop=1;jettySize=auto;html=1;exitX=1;exitY=0.5;exitDx=0;exitDy=0;entryX=0;entryY=0.5;entryDx=0;entryDy=0;fontSize=9;" edge="1" parent="1" source="I9-Bo0b2mwKEJArJB-ll-73" target="I9-Bo0b2mwKEJArJB-ll-77">
          <mxGeometry relative="1" as="geometry" />
        </mxCell>
        <mxCell id="I9-Bo0b2mwKEJArJB-ll-73" value="Ensure datasheets are in the &lt;strong&gt;Customer’s preferred language&lt;/strong&gt;" style="rounded=0;whiteSpace=wrap;html=1;align=center;fontSize=9;" vertex="1" parent="1">
          <mxGeometry x="1553" y="323" width="76" height="39" as="geometry" />
        </mxCell>
        <mxCell id="I9-Bo0b2mwKEJArJB-ll-74" value="" style="ellipse;html=1;shape=endState;fillColor=#000000;strokeColor=#ff0000;fontSize=9;" vertex="1" parent="1">
          <mxGeometry x="2082" y="181" width="30" height="30" as="geometry" />
        </mxCell>
        <mxCell id="I9-Bo0b2mwKEJArJB-ll-76" style="edgeStyle=orthogonalEdgeStyle;rounded=0;orthogonalLoop=1;jettySize=auto;html=1;exitX=1;exitY=0.5;exitDx=0;exitDy=0;entryX=0;entryY=0.5;entryDx=0;entryDy=0;fontSize=9;" edge="1" parent="1" source="I9-Bo0b2mwKEJArJB-ll-77" target="I9-Bo0b2mwKEJArJB-ll-74">
          <mxGeometry relative="1" as="geometry" />
        </mxCell>
        <mxCell id="I9-Bo0b2mwKEJArJB-ll-77" value="" style="rhombus;whiteSpace=wrap;html=1;fontSize=9;" vertex="1" parent="1">
          <mxGeometry x="1713" y="181" width="30" height="30" as="geometry" />
        </mxCell>
        <mxCell id="I9-Bo0b2mwKEJArJB-ll-78" style="edgeStyle=orthogonalEdgeStyle;rounded=0;orthogonalLoop=1;jettySize=auto;html=1;exitX=0.5;exitY=1;exitDx=0;exitDy=0;fontSize=9;" edge="1" parent="1" source="I9-Bo0b2mwKEJArJB-ll-77" target="I9-Bo0b2mwKEJArJB-ll-77">
          <mxGeometry relative="1" as="geometry" />
        </mxCell>
        <mxCell id="I9-Bo0b2mwKEJArJB-ll-79" value="" style="shape=cross;whiteSpace=wrap;html=1;size=0.1430091119581675;fillStyle=solid;fillColor=none;fontSize=9;" vertex="1" parent="1">
          <mxGeometry x="1718" y="186" width="20" height="20" as="geometry" />
        </mxCell>
        <mxCell id="I9-Bo0b2mwKEJArJB-ll-80" style="edgeStyle=orthogonalEdgeStyle;rounded=0;orthogonalLoop=1;jettySize=auto;html=1;exitX=1;exitY=0.5;exitDx=0;exitDy=0;entryX=0;entryY=0.5;entryDx=0;entryDy=0;fontSize=9;" edge="1" parent="1" source="I9-Bo0b2mwKEJArJB-ll-8" target="I9-Bo0b2mwKEJArJB-ll-46">
          <mxGeometry relative="1" as="geometry" />
        </mxCell>
        <mxCell id="I9-Bo0b2mwKEJArJB-ll-120" style="edgeStyle=orthogonalEdgeStyle;rounded=0;orthogonalLoop=1;jettySize=auto;html=1;exitX=0.5;exitY=1;exitDx=0;exitDy=0;entryX=0.5;entryY=0;entryDx=0;entryDy=0;" edge="1" parent="1" source="I9-Bo0b2mwKEJArJB-ll-95" target="I9-Bo0b2mwKEJArJB-ll-41">
          <mxGeometry relative="1" as="geometry" />
        </mxCell>
        <mxCell id="I9-Bo0b2mwKEJArJB-ll-95" value="" style="rhombus;whiteSpace=wrap;html=1;fontSize=9;" vertex="1" parent="1">
          <mxGeometry x="283" y="210" width="30" height="30" as="geometry" />
        </mxCell>
        <mxCell id="I9-Bo0b2mwKEJArJB-ll-96" style="edgeStyle=orthogonalEdgeStyle;rounded=0;orthogonalLoop=1;jettySize=auto;html=1;exitX=0.5;exitY=1;exitDx=0;exitDy=0;fontSize=9;" edge="1" parent="1" source="I9-Bo0b2mwKEJArJB-ll-95" target="I9-Bo0b2mwKEJArJB-ll-95">
          <mxGeometry relative="1" as="geometry" />
        </mxCell>
        <mxCell id="I9-Bo0b2mwKEJArJB-ll-97" value="" style="shape=cross;whiteSpace=wrap;html=1;size=0.1430091119581675;fillStyle=solid;fillColor=none;fontSize=9;" vertex="1" parent="1">
          <mxGeometry x="288" y="215" width="20" height="20" as="geometry" />
        </mxCell>
        <mxCell id="I9-Bo0b2mwKEJArJB-ll-118" style="edgeStyle=orthogonalEdgeStyle;rounded=0;orthogonalLoop=1;jettySize=auto;html=1;exitX=1;exitY=0.5;exitDx=0;exitDy=0;entryX=0;entryY=0.5;entryDx=0;entryDy=0;" edge="1" parent="1" source="I9-Bo0b2mwKEJArJB-ll-5" target="I9-Bo0b2mwKEJArJB-ll-95">
          <mxGeometry relative="1" as="geometry" />
        </mxCell>
        <mxCell id="I9-Bo0b2mwKEJArJB-ll-119" style="edgeStyle=orthogonalEdgeStyle;rounded=0;orthogonalLoop=1;jettySize=auto;html=1;exitX=0.5;exitY=1;exitDx=0;exitDy=0;entryX=0.5;entryY=0;entryDx=0;entryDy=0;" edge="1" parent="1" source="I9-Bo0b2mwKEJArJB-ll-91" target="I9-Bo0b2mwKEJArJB-ll-95">
          <mxGeometry relative="1" as="geometry" />
        </mxCell>
      </root>
    </mxGraphModel>
  </diagram>
</mxfile>
